PathFileType	4	(X/Y/Z)	C:/Users/opensim2020/Desktop/walking_exp_matlab/subject03_walking11_straight_04.trc	
DataRate	CameraRate	NumFrames	NumMarkers	Units	OrigDataRate	OrigDataStartFrame	OrigNumFrames	
100.00	100.00	4	46	mm	100.00	3879	350	
Frame#	Time	LFHD			RFHD			LBHD			RBHD			C7			T10			CLAV			STRN			RBAK			LSHO			LUPA			LELB			LFRM			LWRA			LWRB			LFIN			RSHO			RUPA			RELB			RFRM			RWRA			RWRB			RFIN			LASI			RASI			LPSI			RPSI			LTHI			LKNE			LTIB			LANK			LHEE			LTOE			RTHI			RKNE			RTIB			RANK			RHEE			RTOE			*39			*40			*41			*42			*43			*44			*45			
		X1	Y1	Z1	X2	Y2	Z2	X3	Y3	Z3	X4	Y4	Z4	X5	Y5	Z5	X6	Y6	Z6	X7	Y7	Z7	X8	Y8	Z8	X9	Y9	Z9	X10	Y10	Z10	X11	Y11	Z11	X12	Y12	Z12	X13	Y13	Z13	X14	Y14	Z14	X15	Y15	Z15	X16	Y16	Z16	X17	Y17	Z17	X18	Y18	Z18	X19	Y19	Z19	X20	Y20	Z20	X21	Y21	Z21	X22	Y22	Z22	X23	Y23	Z23	X24	Y24	Z24	X25	Y25	Z25	X26	Y26	Z26	X27	Y27	Z27	X28	Y28	Z28	X29	Y29	Z29	X30	Y30	Z30	X31	Y31	Z31	X32	Y32	Z32	X33	Y33	Z33	X34	Y34	Z34	X35	Y35	Z35	X36	Y36	Z36	X37	Y37	Z37	X38	Y38	Z38	X39	Y39	Z39	X40	Y40	Z40	X41	Y41	Z41	X42	Y42	Z42	X43	Y43	Z43	X44	Y44	Z44	X45	Y45	Z45	X46	Y46	Z46	

132	1.310	-947.63660	150.11967	1595.57605	-1080.02869	155.89848	1607.47437	-948.27460	281.21957	1562.22986	-1078.59412	282.07462	1573.10046	-1014.47089	325.93518	1406.10986	-1014.57056	368.31750	1092.35291	-1016.68073	208.19452	1323.96436	-1014.76300	170.02448	1158.79956	-1112.76099	388.05945	1233.17480	-858.74701	252.58961	1360.21387	-794.41772	288.47296	1161.96814	-787.83588	298.87079	1037.94690	-794.00311	287.12729	908.27667	-829.91864	280.38715	791.06903	-779.06921	303.72543	795.62787	-793.58795	298.15253	711.77588	-1175.30676	253.04655	1351.01465	-1253.67090	222.02942	1135.80701	-1267.30945	179.85660	1031.72888	-1262.30273	119.69834	909.33167	-1219.89307	62.61516	831.85986	-1264.99341	86.05870	815.03986	-1250.77905	38.78836	759.38159	-908.62744	195.61922	924.25684	-1146.91602	212.67259	924.24872	-943.88354	361.33884	947.64624	-1093.73230	368.93951	960.34338	-863.29254	196.72121	627.03662	-908.07098	144.83069	459.07144	-904.62579	140.66954	269.00858	-935.91663	90.96678	63.56449	-973.84137	126.35087	27.99790	-966.95770	-60.39427	38.83945	-1177.35352	319.03427	638.12390	-1143.40857	345.42163	459.70001	-1136.71033	454.31094	297.54529	-1081.37073	552.93262	105.54855	-1026.22192	600.21387	89.54501	-1073.45117	427.47720	30.05553	-987.83215	230.55547	1668.66296																		 
133	1.320	-946.52570	142.06317	1596.08923	-1078.94714	147.93893	1608.13269	-947.16010	273.07242	1562.54004	-1077.62659	274.04953	1573.68286	-1013.13635	317.53043	1406.53088	-1013.84314	359.46539	1092.56189	-1015.88428	199.84511	1324.55225	-1014.31335	161.20711	1159.42786	-1111.19714	379.97025	1233.23096	-857.73816	243.58421	1360.21399	-793.64624	278.72955	1161.72156	-787.05896	288.69769	1037.62671	-793.58875	277.08569	907.93237	-830.04669	270.56137	790.59363	-778.71460	293.70053	795.29413	-793.38751	288.21603	711.42865	-1174.52002	245.31319	1351.33521	-1252.30627	215.17357	1135.59314	-1265.77161	173.34760	1031.23914	-1260.37146	113.62601	908.55573	-1217.80396	56.66101	831.18591	-1262.74500	80.40734	814.18811	-1248.44849	33.27644	758.55481	-908.19318	185.90508	925.21851	-1146.37390	203.47079	923.99890	-943.38428	351.87097	948.70789	-1093.33569	359.57294	960.36816	-863.57404	187.93556	628.51892	-907.64197	138.37589	459.52850	-903.98041	135.03166	269.22110	-936.77161	88.35474	63.33687	-974.00745	124.74220	28.74472	-965.91272	-62.92849	36.54182	-1177.19958	309.83279	637.80591	-1144.05212	336.24054	459.37619	-1137.61462	448.09167	299.03137	-1082.14465	550.30347	108.58467	-1026.95947	597.94385	93.95383	-1073.72021	427.07260	30.15591	-994.93292	221.61534	1663.88000																		 
134	1.330	-945.52338	133.92909	1596.68555	-1077.86694	139.91504	1608.87598	-946.11182	265.06235	1563.18042	-1076.52612	266.02515	1574.34985	-1011.87994	309.20908	1407.16028	-1013.30267	350.49033	1092.89575	-1015.10248	191.51289	1325.30908	-1013.75983	152.38123	1160.35400	-1109.69263	371.80167	1233.51636	-856.79828	234.79338	1360.54773	-792.88361	268.85864	1161.84216	-786.42261	278.44507	1037.64026	-793.16309	266.78644	907.92133	-829.33252	260.28329	790.80963	-778.25494	283.21191	795.24365	-793.02826	277.84747	711.48773	-1173.66284	237.47484	1351.94543	-1250.85852	208.30247	1135.70117	-1264.11426	166.97830	1031.02454	-1258.42932	107.93756	908.00262	-1215.79297	51.12328	830.57104	-1260.45874	75.19911	813.45856	-1246.17896	28.26580	757.70032	-907.76367	176.39763	926.80084	-1145.71240	194.07391	923.98346	-942.97778	342.59488	950.22137	-1093.13721	350.18350	960.56403	-863.79047	179.87361	630.05078	-907.45776	131.33525	460.34976	-903.51111	129.57524	269.56631	-937.54590	87.18128	63.54483	-974.30438	124.39916	29.36543	-964.91272	-64.68178	35.25913	-1177.04028	300.28998	637.51355	-1144.73938	326.47128	459.00464	-1138.03320	441.84482	300.73550	-1083.06982	547.49030	112.26399	-1027.58154	595.29254	99.11492	-1074.06299	426.94626	29.97815	-987.79553	212.79172	1669.25720																		 
135	1.340	-944.47626	125.80412	1597.61328	-1076.74451	131.92360	1609.81616	-945.01862	256.94928	1563.88953	-1075.34656	257.98938	1575.16968	-1010.90253	301.00421	1407.85229	-1012.88391	341.61783	1093.45898	-1014.31342	183.17250	1326.22632	-1013.23138	143.65585	1161.45679	-1108.29590	363.56607	1234.01392	-855.91248	226.02101	1361.20032	-792.11755	258.80032	1162.21802	-785.75360	267.80695	1038.00293	-792.67914	256.12341	908.25708	-828.92340	249.71584	791.24438	-777.68475	272.41721	795.51569	-792.67010	267.06137	711.74377	-1172.77563	229.50426	1352.87830	-1249.30945	201.42744	1136.04114	-1262.33167	160.69957	1031.04797	-1256.46399	102.46732	907.63257	-1213.80347	45.97807	829.99780	-1258.27979	70.40823	812.86047	-1243.99207	23.71362	756.93689	-907.28741	166.94815	928.60797	-1144.90649	184.75423	924.14606	-942.74402	333.23145	951.96960	-1092.94910	340.82971	960.91541	-863.64459	172.43155	631.64117	-907.27277	123.87117	461.65466	-903.04150	124.42629	270.18796	-938.56555	85.93790	63.51601	-974.52899	123.99668	29.61107	-966.18146	-65.71433	34.44132	-1177.00317	290.28293	637.21576	-1145.69324	315.82770	458.69943	-1138.84448	434.86691	302.78400	-1083.67834	544.26294	116.57235	-1027.99487	591.82495	104.84483	-1074.24097	426.46979	29.99727																					 
